HIERARCHY
ROOT Hip
{
	OFFSET 0 1.131 0.0052
	CHANNELS 6 Xposition Yposition Zposition Xrotation Yrotation Zrotation
	JOINT Abdomen
	{
		OFFSET 0 -0.047353 -0.05
		CHANNELS 3 Xrotation Zrotation Yrotation
		JOINT Chest
		{
			OFFSET 0 0.132153 0.007439
			CHANNELS 3 Xrotation Zrotation Yrotation
			JOINT Neck
			{
				OFFSET 0 0.3078 0.006161
				CHANNELS 3 Xrotation Zrotation Yrotation
				JOINT Head_comp
				{
					OFFSET 0 0.0884 0.013
					CHANNELS 3 Xrotation Yrotation Zrotation
					End Site
					{
						OFFSET -0 0.156 0.0624
					}
				}
			}
			JOINT Left_Collar
			{
				OFFSET 0.02282 0.250342 0.017193
				CHANNELS 2 Yrotation Zrotation
				JOINT Left_Shoulder
				{
					OFFSET 0.15421 0 0
					CHANNELS 3 Xrotation Yrotation Zrotation
					JOINT Left_Forearm
					{
						OFFSET 0.265212 0 0
						CHANNELS 2 Yrotation Xrotation
						JOINT Left_Hand
						{
							OFFSET 0.27571 0 0
							CHANNELS 2 Zrotation Yrotation
							JOINT L1ProxPhalanx
							{
								OFFSET 0.014142 0.001733 0.014142
								CHANNELS 3 Yrotation Zrotation Xrotation
								JOINT L1MidPhalanx
								{
									OFFSET 0.04 0 0
									CHANNELS 1 Zrotation
									JOINT L1DistPhalanx
									{
										OFFSET 0.035 0 0
										CHANNELS 1 Zrotation
										End Site
										{
											OFFSET 0.029 -0 -0
										}
									}
								}
							}
							JOINT L2ProxPhalanx
							{
								OFFSET 0.0821037 0.001578 0.0219996
								CHANNELS 2 Yrotation Zrotation
								JOINT L2MidPhalanx
								{
									OFFSET 0.04 0 0
									CHANNELS 1 Zrotation
									JOINT L2DistPhalanx
									{
										OFFSET 0.028 0 0
										CHANNELS 1 Zrotation
										End Site
										{
											OFFSET 0.02 -0 -0
										}
									}
								}
							}
							JOINT L3ProxPhalanx
							{
								OFFSET 0.083 0 0
								CHANNELS 2 Yrotation Zrotation
								JOINT L3MidPhalanx
								{
									OFFSET 0.053 0 0
									CHANNELS 1 Zrotation
									JOINT L3DistPhalanx
									{
										OFFSET 0.03 0 0
										CHANNELS 1 Zrotation
										End Site
										{
											OFFSET 0.023 -0 -0
										}
									}
								}
							}
							JOINT L4ProxPhalanx
							{
								OFFSET 0.077274 -0.000761 -0.0207055
								CHANNELS 2 Yrotation Zrotation
								JOINT L4MidPhalanx
								{
									OFFSET 0.05 0 0
									CHANNELS 1 Zrotation
									JOINT L4DistPhalanx
									{
										OFFSET 0.03 0 0
										CHANNELS 1 Zrotation
										End Site
										{
											OFFSET 0.023 -0 -0
										}
									}
								}
							}
							JOINT L5ProxPhalanx
							{
								OFFSET 0.0675499 -0.001644 -0.039
								CHANNELS 2 Yrotation Zrotation
								JOINT L5MidPhalanx
								{
									OFFSET 0.04 0 0
									CHANNELS 1 Zrotation
									JOINT L5DistPhalanx
									{
										OFFSET 0.021 0 0
										CHANNELS 1 Zrotation
										End Site
										{
											OFFSET 0.022 -0 -0
										}
									}
								}
							}
						}
					}
				}
			}
			JOINT Right_Collar
			{
				OFFSET -0.02282 0.250342 0.017193
				CHANNELS 2 Yrotation Zrotation
				JOINT Right_Shoulder
				{
					OFFSET -0.15421 0 0
					CHANNELS 3 Xrotation Yrotation Zrotation
					JOINT Right_Forearm
					{
						OFFSET -0.265212 0 0
						CHANNELS 2 Yrotation Xrotation
						JOINT Right_Hand
						{
							OFFSET -0.27571 3e-006 0
							CHANNELS 2 Zrotation Yrotation
							JOINT R1ProxPhalanx
							{
								OFFSET -0.014142 0.001733 0.014142
								CHANNELS 3 Yrotation Zrotation Xrotation
								JOINT R1MidPhalanx
								{
									OFFSET -0.04 0 0
									CHANNELS 1 Zrotation
									JOINT R1DistPhalanx
									{
										OFFSET -0.035 0 0
										CHANNELS 1 Zrotation
										End Site
										{
											OFFSET -0.029 -0 -0
										}
									}
								}
							}
							JOINT R2ProxPhalanx
							{
								OFFSET -0.0821037 0.001578 0.0219996
								CHANNELS 2 Yrotation Zrotation
								JOINT R2MidPhalanx
								{
									OFFSET -0.04 0 0
									CHANNELS 1 Zrotation
									JOINT R2DistPhalanx
									{
										OFFSET -0.028 0 0
										CHANNELS 1 Zrotation
										End Site
										{
											OFFSET -0.02 -0 -0
										}
									}
								}
							}
							JOINT R3ProxPhalanx
							{
								OFFSET -0.083 0 0
								CHANNELS 2 Yrotation Zrotation
								JOINT R3MidPhalanx
								{
									OFFSET -0.053 0 0
									CHANNELS 1 Zrotation
									JOINT R3DistPhalanx
									{
										OFFSET -0.03 0 0
										CHANNELS 1 Zrotation
										End Site
										{
											OFFSET -0.023 -0 -0
										}
									}
								}
							}
							JOINT R4ProxPhalanx
							{
								OFFSET -0.077274 -0.000761 -0.0207055
								CHANNELS 2 Yrotation Zrotation
								JOINT R4MidPhalanx
								{
									OFFSET -0.05 0 0
									CHANNELS 1 Zrotation
									JOINT R4DistPhalanx
									{
										OFFSET -0.03 0 0
										CHANNELS 1 Zrotation
										End Site
										{
											OFFSET -0.023 -0 -0
										}
									}
								}
							}
							JOINT R5ProxPhalanx
							{
								OFFSET -0.0675499 -0.001644 -0.039
								CHANNELS 2 Yrotation Zrotation
								JOINT R5MidPhalanx
								{
									OFFSET -0.04 0 0
									CHANNELS 1 Zrotation
									JOINT R5DistPhalanx
									{
										OFFSET -0.021 0 0
										CHANNELS 1 Zrotation
										End Site
										{
											OFFSET -0.022 -0 -0
										}
									}
								}
							}
						}
					}
				}
			}
		}
	}
	JOINT Left_Thigh
	{
		OFFSET 0.1118 -0.1612 -0.0442
		CHANNELS 3 Xrotation Zrotation Yrotation
		JOINT Left_Shin
		{
			OFFSET 0 -0.477856 0
			CHANNELS 1 Xrotation
			JOINT Left_Foot
			{
				OFFSET 0 -0.431952 0
				CHANNELS 2 Xrotation Zrotation
				JOINT Left_Toe
				{
					OFFSET 0 -0.0442 0.119
					CHANNELS 1 Xrotation
					End Site
					{
						OFFSET -0 -0 0.07
					}
				}
			}
		}
	}
	JOINT Right_Thigh
	{
		OFFSET -0.1118 -0.1612 -0.0442
		CHANNELS 3 Xrotation Zrotation Yrotation
		JOINT Right_Shin
		{
			OFFSET 0 -0.477856 0
			CHANNELS 1 Xrotation
			JOINT Right_Foot
			{
				OFFSET 0 -0.431952 0
				CHANNELS 2 Xrotation Zrotation
				JOINT Right_Toe
				{
					OFFSET 0 -0.0442 0.119
					CHANNELS 1 Xrotation
					End Site
					{
						OFFSET -0 -0 0.07
					}
				}
			}
		}
	}
}
MOTION
Frames: 5
Frame Time: 0.009975
-0.0995474 -0.0600745 0.039076 -6.90894e-011 4.40289e-010 -5.10979e-006 0 -0 0 0 -0 0 0 -0 0 -0.712018 0.285616 2.69567e-013 0.195196 -15.737 -13.0782 -32.736 -33.8013 -38.3583 16.9383 27.5236 -8.74455 -45.249 -64.6353 114.603 -10.7375 -5.74171 1.12612 -23.979 -21.2708 -12.6316 0.582616 -1.22743 -9.80309 -2.20767 -3.72287 1.40227 -11.7815 -5.35178 5.39913 4.75847 -51.4314 32.5933 -1.43927 14.514 -12.3313 28.7452 29.0586 37.2051 16.433 -23.0707 8.28308 100.73 63.3011 59.7832 9.12 4.22734 6.6647 7.25284 14.4727 12.4395 1.76276 -0.712129 5.21793 1.93396 3.75207 -1.56005 7.45705 5.58267 -8.40025 -3.93095 32.4737 -20.5638 -0.00662074 -0.771632 8.91618e-005 0.0240216 -0.0174015 0.771637 0 0.00478511 -0.771631 -6.44518e-005 8.58043e-007 -0.00478553 0.771637 0 
-0.0995322 -0.0600747 0.0390785 7.57729e-011 4.13071e-010 -5.10979e-006 0 -0 0 0 -0 0 0 -0 0 -0.712017 0.285666 -4.01434e-014 0.22237 -15.7224 -12.8287 -32.959 -33.7565 -38.2953 16.7496 27.5934 -8.73387 -44.5814 -64.6329 115.374 -10.5855 -5.84544 1.1835 -23.8195 -21.0175 -12.5949 0.574098 -1.04179 -9.79783 -2.2932 -3.83791 1.41988 -11.8285 -5.34514 5.23492 4.7627 -51.0512 32.2708 -1.43927 14.514 -12.3313 28.7452 29.0586 37.2051 16.433 -23.0707 8.28308 100.73 63.3011 59.7832 9.12 4.22734 6.6647 7.25284 14.4727 12.4395 1.76276 -0.712129 5.21793 1.93396 3.75207 -1.56005 7.45705 5.58267 -8.40025 -3.93095 32.4737 -20.5638 -0.00645995 -0.772591 8.71019e-005 0.0240216 -0.0175623 0.772596 0 0.00494505 -0.772591 -6.66825e-005 1.40167e-006 -0.004946 0.772596 0 
-0.0995123 -0.060075 0.0390852 1.93213e-012 4.69671e-010 -5.10979e-006 0 -0 0 0 -0 0 0 -0 0 -0.712018 0.285601 7.16552e-013 0.266235 -15.7266 -12.7639 -33.0894 -33.8211 -38.1806 16.6343 27.6513 -8.78327 -43.8701 -64.8065 116.143 -10.5657 -5.85316 1.27669 -23.8195 -20.6078 -12.492 0.530831 -0.877913 -9.776 -2.36112 -3.9709 1.43999 -11.8686 -5.43442 5.03997 4.76818 -50.5976 31.8235 -1.43927 14.514 -12.3313 28.7452 29.0586 37.2051 16.433 -23.0707 8.28308 100.73 63.3011 59.7832 9.12 4.22734 6.6647 7.25284 14.4727 12.4395 1.76276 -0.712129 5.21793 1.93396 3.75207 -1.56005 7.45705 5.58267 -8.40025 -3.93095 32.4737 -20.5638 -0.00604178 -0.773844 8.15979e-005 0.0240216 -0.0179804 0.773849 0 0.00536321 -0.773844 -7.24186e-005 2.83165e-006 -0.00536534 0.773849 0 
-0.0995061 -0.0600751 0.0390859 -5.90943e-012 4.87359e-010 -5.10979e-006 0 -0 0 0 -0 0 0 -0 0 -0.712019 0.28552 -0 0.273362 -15.7497 -12.8232 -33.0779 -33.8716 -38.0508 16.7036 27.8167 -8.78242 -43.4576 -64.9733 116.556 -10.6557 -5.72309 1.32578 -23.8827 -20.2996 -12.3732 0.483115 -0.755648 -9.75398 -2.37705 -4.07078 1.45178 -11.8356 -5.5759 4.8964 4.77665 -50.4896 31.6853 -1.43927 14.514 -12.3313 28.7452 29.0586 37.2051 16.433 -23.0707 8.28308 100.73 63.3011 59.7832 9.12 4.22734 6.6647 7.25284 14.4727 12.4395 1.76276 -0.712129 5.21793 1.93396 3.75207 -1.56005 7.45705 5.58267 -8.40025 -3.93095 32.4737 -20.5638 -0.00599614 -0.774237 8.10229e-005 0.0240216 -0.018026 0.774242 0 0.00540971 -0.774237 -7.30998e-005 1.23157e-006 -0.00541045 0.774242 0 
-0.0995114 -0.060075 0.0390834 -1.12604e-010 4.77346e-010 -5.10979e-006 0 -0 0 0 -0 0 0 -0 0 -0.712019 0.285504 2.57383e-014 0.26156 -15.7788 -12.753 -33.1093 -33.7648 -37.9631 16.7829 28.015 -8.66647 -43.2707 -64.8919 116.823 -10.5921 -5.76984 1.29031 -23.8126 -20.1998 -12.4248 0.406157 -0.565484 -9.77745 -2.38081 -4.14026 1.46448 -11.7859 -5.60511 4.8373 4.77604 -50.3339 31.6588 -1.43927 14.514 -12.3313 28.7452 29.0586 37.2051 16.433 -23.0707 8.28308 100.73 63.3011 59.7832 9.12 4.22734 6.6647 7.25284 14.4727 12.4395 1.76276 -0.712129 5.21793 1.93396 3.75207 -1.56005 7.45705 5.58267 -8.40025 -3.93095 32.4737 -20.5638 -0.00615539 -0.773898 8.31378e-005 0.0240216 -0.0178668 0.773903 0 0.00525046 -0.773898 -7.09201e-005 8.32429e-007 -0.00525082 0.773903 0 
